<svg width="485" height="123" viewBox="0 0 485 123" fill="none" xmlns="http://www.w3.org/2000/svg">
<path d="M376.865 22.757H370.934C369.168 22.757 367.736 24.1888 367.736 25.9551V31.8856C367.736 33.6519 369.168 35.0837 370.934 35.0837H376.865C378.631 35.0837 380.063 33.6519 380.063 31.8856V25.9551C380.063 24.1888 378.631 22.757 376.865 22.757Z" fill="white"/>
<path d="M162.177 25.208V98.575C162.177 100.34 160.745 101.773 158.979 101.773H153.622C151.857 101.773 150.424 100.34 150.424 98.575V25.208C150.424 23.4426 151.857 22.0099 153.622 22.0099H158.979C160.745 22.0099 162.177 23.4426 162.177 25.208Z" fill="white"/>
<path d="M185.112 78.0406C186.14 86.6013 193.212 92.189 203.482 92.189C208.24 92.189 214.028 90.6795 217.804 87.9317C219.068 87.0107 220.803 87.1181 221.928 88.208L225.045 91.2322C226.411 92.5575 226.339 94.7885 224.865 95.9858C219.001 100.755 210.743 103.144 203.251 103.144C184.764 103.144 172.898 91.3908 172.898 73.3637C172.898 55.3367 184.881 44.0384 202.453 44.0384C220.025 44.0384 231.784 54.1188 230.96 74.9756C230.893 76.6898 229.476 78.0458 227.762 78.0458H185.107L185.112 78.0406ZM219.457 68.1137C218.771 59.2153 212.267 54.5333 202.796 54.5333C194.235 54.5333 187.164 59.2102 185.337 68.1137H219.457Z" fill="white"/>
<path d="M278.906 98.575V69.0041C278.906 61.5896 272.904 55.4134 265.489 55.5618C257.328 55.7204 252.2 62.6181 252.2 70.8513V98.575C252.2 100.34 250.768 101.773 249.002 101.773H243.645C241.879 101.773 240.447 100.34 240.447 98.575V48.5976C240.447 46.8323 241.879 45.3995 243.645 45.3995H248.526C250.164 45.3995 251.535 46.6327 251.709 48.2599L252.205 52.9317C255.398 46.7709 262.02 44.4887 267.95 44.4887C275.14 44.4887 282.442 47.4565 285.64 55.787C290.204 47.4565 297.281 44.6064 304.926 44.6064C320.445 44.6064 328.776 54.4207 328.776 70.6262V98.5801C328.776 100.345 327.343 101.778 325.578 101.778H320.108C318.342 101.778 316.909 100.345 316.909 98.5801V68.3747C316.909 61.4719 311.404 55.6897 304.501 55.6795C296.155 55.6642 290.777 62.5158 290.777 70.8564V98.5801C290.777 100.345 289.344 101.778 287.579 101.778H282.109C280.344 101.778 278.911 100.345 278.911 98.5801L278.906 98.575Z" fill="white"/>
<path d="M353.874 25.208V98.575C353.874 100.34 352.442 101.773 350.676 101.773H345.319C343.554 101.773 342.121 100.34 342.121 98.575V25.208C342.121 23.4426 343.554 22.0099 345.319 22.0099H350.676C352.442 22.0099 353.874 23.4426 353.874 25.208Z" fill="white"/>
<path d="M368.023 48.4902V98.5801C368.023 100.345 369.456 101.778 371.221 101.778H376.578C378.344 101.778 379.777 100.345 379.777 98.5801V48.4902C379.777 46.7248 378.344 45.2921 376.578 45.2921H371.221C369.456 45.2921 368.023 46.7248 368.023 48.4902Z" fill="white"/>
<path d="M431.402 56.9946C430.337 58.2431 428.511 58.4427 427.16 57.5063C423.348 54.8659 419.239 54.0728 414.582 54.0728C407.393 53.9602 402.598 56.3549 402.598 60.8067C402.711 65.4836 407.618 67.3104 414.807 67.996C425.19 68.9069 438.77 71.189 438.658 85.6854C438.545 96.1854 429.299 103.487 414.695 103.487C406.359 103.487 398.019 101.773 390.988 95.1313C389.821 94.026 389.678 92.2146 390.635 90.92L393.035 87.6708C394.109 86.2175 396.197 85.9208 397.594 87.067C402.665 91.2322 409.255 93.0026 414.925 93.0999C420.518 93.0999 426.791 91.048 426.909 85.798C427.022 80.7782 422.232 78.8389 413.902 78.0355C403.289 77.007 391.08 73.5838 390.967 61.1495C390.967 48.7102 403.862 44.0333 414.362 44.0333C421.797 44.0333 427.804 45.4558 433.321 49.3856C434.85 50.4756 435.122 52.6451 433.904 54.0728L431.412 56.9946H431.402Z" fill="white"/>
<path d="M466.269 32.8681V45.6298H479.501C481.267 45.6298 482.699 47.0625 482.699 48.8279V52.5889C482.699 54.3542 481.267 55.787 479.501 55.787H466.151V82.605C466.151 88.5406 468.776 91.8462 474.251 91.8462C475.622 91.8462 477.112 91.5596 478.58 91.0838C480.218 90.5516 481.978 91.4829 482.53 93.1152L483.871 97.0502C484.439 98.7234 483.549 100.555 481.87 101.113C479.138 102.024 476.503 102.459 473.56 102.459C461.351 102.802 454.392 95.8426 454.392 82.605V55.787H446.747C444.982 55.787 443.549 54.3542 443.549 52.5889V48.8279C443.549 47.0625 444.982 45.6298 446.747 45.6298H454.392V33.4463C454.392 31.8089 455.625 30.4375 457.253 30.2636L462.723 29.6853C464.611 29.4858 466.258 30.9646 466.258 32.8681H466.269Z" fill="white"/>
<path fill-rule="evenodd" clip-rule="evenodd" d="M21.9948 0.979248H100.443C112.425 0.979248 122.139 10.6928 122.139 22.6752V101.123C122.139 113.106 112.425 122.819 100.443 122.819H21.9948C10.0124 122.819 0.298828 113.106 0.298828 101.123V22.6752C0.298828 10.6928 10.0124 0.979248 21.9948 0.979248ZM81.2288 56.4625H57.8903C56.124 56.4625 54.6922 57.8943 54.6922 59.6606V64.143C54.6922 65.9093 56.124 67.3411 57.8903 67.3411H81.2288C82.9951 67.3411 84.4269 65.9093 84.4269 64.143V59.6606C84.4269 57.8943 82.9951 56.4625 81.2288 56.4625ZM57.8903 33.6152H86.3048C88.0711 33.6152 89.5029 35.0471 89.5029 36.8133V41.2958C89.5029 43.0621 88.0711 44.4939 86.3048 44.4939H57.8903C56.124 44.4939 54.6922 43.0621 54.6922 41.2958V36.8133C54.6922 35.0471 56.124 33.6152 57.8903 33.6152ZM89.5029 86.9852V82.5027C89.5029 80.7373 88.0702 79.3046 86.3048 79.3046H52.1286C47.5336 79.3046 43.8135 75.5846 43.8135 70.9895V36.8133C43.8135 35.048 42.3808 33.6152 40.6154 33.6152H36.133C34.3676 33.6152 32.9349 35.048 32.9349 36.8133V77.6569C33.3647 84.3806 38.7375 89.7534 45.4612 90.1833H86.3048C88.0702 90.1833 89.5029 88.7505 89.5029 86.9852Z" fill="#316BFF"/>
<path d="M57.8903 33.6152H86.3048C88.0711 33.6152 89.5029 35.0471 89.5029 36.8133V41.2958C89.5029 43.0621 88.0711 44.4939 86.3048 44.4939H57.8903C56.124 44.4939 54.6922 43.0621 54.6922 41.2958V36.8133C54.6922 35.0471 56.124 33.6152 57.8903 33.6152Z" fill="white"/>
<path d="M57.8903 56.4625H81.2288C82.9951 56.4625 84.4269 57.8943 84.4269 59.6606V64.143C84.4269 65.9093 82.9951 67.3411 81.2288 67.3411H57.8903C56.124 67.3411 54.6922 65.9093 54.6922 64.143V59.6606C54.6922 57.8943 56.124 56.4625 57.8903 56.4625Z" fill="white"/>
<path d="M89.5029 82.5027V86.9852C89.5029 88.7505 88.0702 90.1833 86.3048 90.1833H45.4612C38.7375 89.7534 33.3647 84.3806 32.9349 77.6569V36.8133C32.9349 35.048 34.3676 33.6152 36.133 33.6152H40.6154C42.3808 33.6152 43.8135 35.048 43.8135 36.8133V70.9895C43.8135 75.5846 47.5336 79.3046 52.1286 79.3046H86.3048C88.0702 79.3046 89.5029 80.7373 89.5029 82.5027Z" fill="white"/>
</svg>
